<?xml version="1.0" encoding="UTF-8" standalone="no"?>
<svg
   xmlns:dc="http://purl.org/dc/elements/1.1/"
   xmlns:cc="http://creativecommons.org/ns#"
   xmlns:rdf="http://www.w3.org/1999/02/22-rdf-syntax-ns#"
   xmlns:svg="http://www.w3.org/2000/svg"
   xmlns="http://www.w3.org/2000/svg"
   xmlns:sodipodi="http://sodipodi.sourceforge.net/DTD/sodipodi-0.dtd"
   xmlns:inkscape="http://www.inkscape.org/namespaces/inkscape"
   width="600pt"
   height="450pt"
   viewBox="0 0 600 450"
   version="1.1"
   id="svg39"
   sodipodi:docname="trans.svg"
   inkscape:version="0.92.3 (2405546, 2018-03-11)">
  <metadata
     id="metadata45">
    <rdf:RDF>
      <cc:Work
         rdf:about="">
        <dc:format>image/svg+xml</dc:format>
        <dc:type
           rdf:resource="http://purl.org/dc/dcmitype/StillImage" />
      </cc:Work>
    </rdf:RDF>
  </metadata>
  <defs
     id="defs43" />
  <sodipodi:namedview
     pagecolor="#ffffff"
     bordercolor="#666666"
     borderopacity="1"
     objecttolerance="10"
     gridtolerance="10"
     guidetolerance="10"
     inkscape:pageopacity="0"
     inkscape:pageshadow="2"
     inkscape:window-width="1853"
     inkscape:window-height="1025"
     id="namedview41"
     showgrid="false"
     inkscape:zoom="0.78666667"
     inkscape:cx="344.79923"
     inkscape:cy="309.54243"
     inkscape:window-x="67"
     inkscape:window-y="27"
     inkscape:window-maximized="1"
     inkscape:current-layer="svg39" />
  <g
     id="g886">
    <path
       style="fill:#5cccf8;fill-opacity:1;fill-rule:nonzero;stroke:none"
       d="m 493.63672,225 -0.0312,-3.45703 -0.0937,-3.45313 -0.15235,-3.45312 -0.21484,-3.44922 -0.27734,-3.44531 -0.33985,-3.44141 -0.40234,-3.43359 -0.46094,-3.42578 -0.51953,-3.41407 -0.58594,-3.40625 -0.64453,-3.39843 -0.70312,-3.38282 -0.76563,-3.37109 -0.82422,-3.35547 -0.88281,-3.34375 -0.94531,-3.32422 -1.00391,-3.30469 -1.0625,-3.28906 -1.12109,-3.26953 -1.17969,-3.25 -1.23437,-3.23047 -1.29297,-3.20312 L 300,225 Z m 0,0"
       id="path6"
       inkscape:connector-curvature="0" />
    <path
       style="fill:#78c5eb;fill-opacity:1;fill-rule:nonzero;stroke:none"
       d="m 478.89844,150.89844 -1.35157,-3.17969 -1.41015,-3.16016 -1.46094,-3.1289 -1.51953,-3.10547 -1.57813,-3.07422 -1.6289,-3.05078 -1.6836,-3.01953 -1.73437,-2.98828 -1.79297,-2.95313 -1.83984,-2.92578 -1.89453,-2.89062 -1.94532,-2.85547 -2,-2.82422 -2.04297,-2.78516 -2.09765,-2.74609 -2.14453,-2.71094 -2.19141,-2.67187 -2.24219,-2.632818 -2.28515,-2.59375 -2.33203,-2.550781 -2.37891,-2.507812 -2.42188,-2.464844 L 300,225 Z m 0,0"
       id="path8"
       inkscape:connector-curvature="0" />
    <path
       style="fill:#94bfe1;fill-opacity:1;fill-rule:nonzero;stroke:none"
       d="m 436.92187,88.078125 -2.46484,-2.421875 -2.50781,-2.378906 -2.55078,-2.332032 -2.59375,-2.285156 -2.63282,-2.242187 -2.67187,-2.191407 -2.71094,-2.144531 -2.74609,-2.097656 -2.78516,-2.042969 -2.82422,-2 -2.85547,-1.945312 -2.89062,-1.894532 -2.92578,-1.839843 -2.95313,-1.792969 -2.98828,-1.734375 -3.01953,-1.683594 -3.05078,-1.628906 -3.07422,-1.578125 -3.10547,-1.519531 -3.13281,-1.460938 -3.15625,-1.410156 -3.17969,-1.351563 L 300,225 Z m 0,0"
       id="path10"
       inkscape:connector-curvature="0" />
    <path
       style="fill:#b3b8d4;fill-opacity:1;fill-rule:nonzero;stroke:none"
       d="m 374.10156,46.101562 -3.20312,-1.292968 -3.23047,-1.234375 -3.25,-1.179688 -3.26953,-1.121093 -3.28907,-1.0625 -3.30468,-1.003907 -3.32422,-0.945312 -3.34375,-0.882813 -3.35547,-0.824218 -3.37109,-0.765626 -3.38282,-0.703124 -3.39843,-0.644532 -3.40625,-0.585937 -3.41407,-0.519531 -3.42578,-0.460938 -3.43359,-0.402344 -3.44141,-0.339844 -3.44531,-0.277343 -3.44922,-0.214844 -3.45312,-0.152344 -3.45313,-0.09375 L 300,31.363281 V 225 Z m 0,0"
       id="path12"
       inkscape:connector-curvature="0" />
    <path
       style="fill:#cfb0c7;fill-opacity:1;fill-rule:nonzero;stroke:none"
       d="m 300,31.363281 -3.45703,0.03125 -3.45313,0.09375 -3.45312,0.152344 -3.44922,0.214844 -3.44531,0.277343 -3.44141,0.339844 -3.43359,0.402344 -3.42578,0.460938 -3.41407,0.519531 -3.40625,0.585937 -3.39843,0.644532 -3.38282,0.703124 -3.37109,0.765626 -3.35547,0.824218 -3.34375,0.882813 -3.32422,0.945312 -3.30469,1.003907 -3.28906,1.0625 -3.26953,1.121093 -3.25,1.179688 -3.23047,1.234375 -3.20312,1.292968 L 300,225 Z m 0,0"
       id="path14"
       inkscape:connector-curvature="0" />
    <path
       style="fill:#ebabba;fill-opacity:1;fill-rule:nonzero;stroke:none"
       d="m 225.89844,46.101562 -3.17969,1.351563 -3.16016,1.410156 -3.1289,1.460938 -3.10547,1.519531 -3.07422,1.578125 -3.05078,1.628906 -3.01953,1.683594 -2.98828,1.734375 -2.95313,1.792969 -2.92578,1.839843 -2.89063,1.894532 -2.85546,1.945312 -2.82422,2 -2.78516,2.042969 -2.74609,2.097656 -2.71094,2.144531 -2.67188,2.191407 -2.63281,2.242187 -2.59375,2.285156 -2.55078,2.332032 -2.50781,2.378906 -2.46485,2.421875 L 300,225 Z m 0,0"
       id="path16"
       inkscape:connector-curvature="0" />
    <path
       style="fill:#f5b3bf;fill-opacity:1;fill-rule:nonzero;stroke:none"
       d="m 163.07812,88.078125 -2.42187,2.464844 -2.37891,2.507812 -2.33203,2.550781 -2.28515,2.59375 -2.24219,2.632818 -2.19141,2.67187 -2.14453,2.71094 -2.09766,2.74609 -2.04296,2.78516 -2,2.82422 -1.94532,2.85547 -1.89453,2.89062 -1.83984,2.92578 -1.79297,2.95313 -1.73438,2.98828 -1.68359,3.01953 -1.62891,3.05078 -1.57812,3.07422 -1.51953,3.10547 -1.46094,3.1289 -1.41015,3.16016 -1.35157,3.17969 L 300,225 Z m 0,0"
       id="path18"
       inkscape:connector-curvature="0" />
    <path
       style="fill:#f8c2cc;fill-opacity:1;fill-rule:nonzero;stroke:none"
       d="m 121.10156,150.89844 -1.29297,3.20312 -1.23437,3.23047 -1.17969,3.25 -1.12109,3.26953 -1.0625,3.28906 -1.00391,3.30469 -0.94531,3.32422 -0.88281,3.34375 -0.82422,3.35547 -0.76563,3.37109 -0.70312,3.38282 -0.64453,3.39843 -0.58594,3.40625 -0.51953,3.41407 -0.46094,3.42578 -0.40234,3.43359 -0.33985,3.44141 -0.27734,3.44531 -0.21484,3.44922 -0.15235,3.45312 -0.0937,3.45313 L 106.36328,225 H 300 Z m 0,0"
       id="path20"
       inkscape:connector-curvature="0" />
    <path
       style="fill:#fad4dc;fill-opacity:1;fill-rule:nonzero;stroke:none"
       d="m 106.36328,225 0.0312,3.45703 0.0937,3.45313 0.15235,3.45312 0.21484,3.44922 0.27734,3.44531 0.33985,3.44141 0.40234,3.43359 0.46094,3.42578 0.51953,3.41407 0.58594,3.40625 0.64453,3.39843 0.70312,3.38282 0.76563,3.37109 0.82422,3.35547 0.88281,3.34375 0.94531,3.32422 1.00391,3.30468 1.0625,3.28907 1.12109,3.26953 1.17969,3.25 1.23437,3.23047 1.29297,3.20312 L 300,225 Z m 0,0"
       id="path22"
       inkscape:connector-curvature="0" />
    <path
       style="fill:#fae3e8;fill-opacity:1;fill-rule:nonzero;stroke:none"
       d="m 121.10156,299.10156 1.35157,3.17969 1.41015,3.15625 1.46094,3.13281 1.51953,3.10547 1.57812,3.07422 1.62891,3.05078 1.68359,3.01953 1.73438,2.98828 1.79297,2.95313 1.83984,2.92578 1.89453,2.89062 1.94532,2.85547 2,2.82422 2.04296,2.78516 2.09766,2.74609 2.14453,2.71094 2.19141,2.67187 2.24219,2.63282 2.28515,2.59375 2.33203,2.55078 2.37891,2.50781 2.42187,2.46484 L 300,225 Z m 0,0"
       id="path24"
       inkscape:connector-curvature="0" />
    <path
       style="fill:#fdf3f5;fill-opacity:1;fill-rule:nonzero;stroke:none"
       d="m 163.07812,361.92187 2.46485,2.42188 2.50781,2.37891 2.55078,2.33203 2.59375,2.28515 2.63281,2.24219 2.67188,2.19141 2.71094,2.14453 2.74609,2.09765 2.78516,2.04297 2.82422,2 2.85546,1.94532 2.89063,1.89453 2.92578,1.83984 2.95313,1.79297 2.98828,1.73437 3.01953,1.6836 3.05078,1.6289 3.07422,1.57813 3.10547,1.51953 3.1289,1.46094 3.16016,1.41015 3.17969,1.35157 L 300,225 Z m 0,0"
       id="path26"
       inkscape:connector-curvature="0" />
    <path
       style="fill:#f5fafd;fill-opacity:1;fill-rule:nonzero;stroke:none"
       d="m 225.89844,403.89844 3.20312,1.29297 3.23047,1.23437 3.25,1.17969 3.26953,1.12109 3.28906,1.0625 3.30469,1.00391 3.32422,0.94531 3.34375,0.88281 3.35547,0.82422 3.37109,0.76563 3.38282,0.70312 3.39843,0.64453 3.40625,0.58594 3.41407,0.51953 3.42578,0.46094 3.43359,0.40234 3.44141,0.33985 3.44531,0.27734 3.44922,0.21484 3.45312,0.15235 3.45313,0.0937 3.45703,0.0312 V 225 Z m 0,0"
       id="path28"
       inkscape:connector-curvature="0" />
    <path
       style="fill:#d7f3fd;fill-opacity:1;fill-rule:nonzero;stroke:none"
       d="m 300,418.63672 3.45703,-0.0312 3.45313,-0.0937 3.45312,-0.15235 3.44922,-0.21484 3.44531,-0.27734 3.44141,-0.33985 3.43359,-0.40234 3.42578,-0.46094 3.41407,-0.51953 3.40625,-0.58594 3.39843,-0.64453 3.38282,-0.70312 3.37109,-0.76563 3.35547,-0.82422 3.34375,-0.88281 3.32422,-0.94531 3.30468,-1.00391 3.28907,-1.0625 3.26953,-1.12109 3.25,-1.17969 3.23047,-1.23437 3.20312,-1.29297 L 300,225 Z m 0,0"
       id="path30"
       inkscape:connector-curvature="0" />
    <path
       style="fill:#b8e8fd;fill-opacity:1;fill-rule:nonzero;stroke:none"
       d="m 374.10156,403.89844 3.17969,-1.35157 3.15625,-1.41015 3.13281,-1.46094 3.10547,-1.51953 3.07422,-1.57813 3.05078,-1.6289 3.01953,-1.6836 2.98828,-1.73437 2.95313,-1.79297 2.92578,-1.83984 2.89062,-1.89453 2.85547,-1.94532 2.82422,-2 2.78516,-2.04297 2.74609,-2.09765 2.71094,-2.14453 2.67187,-2.19141 2.63282,-2.24219 2.59375,-2.28515 2.55078,-2.33203 2.50781,-2.37891 2.46484,-2.42188 L 300,225 Z m 0,0"
       id="path32"
       inkscape:connector-curvature="0" />
    <path
       style="fill:#99e1fa;fill-opacity:1;fill-rule:nonzero;stroke:none"
       d="m 436.92187,361.92187 2.42188,-2.46484 2.37891,-2.50781 2.33203,-2.55078 2.28515,-2.59375 2.24219,-2.63282 2.19141,-2.67187 2.14453,-2.71094 2.09765,-2.74609 2.04297,-2.78516 2,-2.82422 1.94532,-2.85547 1.89453,-2.89062 1.83984,-2.92578 1.79297,-2.95313 1.73437,-2.98828 1.6836,-3.01953 1.6289,-3.05078 1.57813,-3.07422 1.51953,-3.10547 1.46094,-3.13281 1.41015,-3.15625 1.35157,-3.17969 L 300,225 Z m 0,0"
       id="path34"
       inkscape:connector-curvature="0" />
    <path
       style="fill:#7ad7fa;fill-opacity:1;fill-rule:nonzero;stroke:none"
       d="m 478.89844,299.10156 1.29297,-3.20312 1.23437,-3.23047 1.17969,-3.25 1.12109,-3.26953 1.0625,-3.28907 1.00391,-3.30468 0.94531,-3.32422 0.88281,-3.34375 0.82422,-3.35547 0.76563,-3.37109 0.70312,-3.38282 0.64453,-3.39843 0.58594,-3.40625 0.51953,-3.41407 0.46094,-3.42578 0.40234,-3.43359 0.33985,-3.44141 0.27734,-3.44531 0.21484,-3.44922 0.15235,-3.45312 0.0937,-3.45313 L 493.63672,225 H 300 Z m 0,0"
       id="path36"
       inkscape:connector-curvature="0" />
  </g>
</svg>
