<?xml version="1.0" encoding="UTF-8" standalone="no"?>
<svg
   xmlns:dc="http://purl.org/dc/elements/1.1/"
   xmlns:cc="http://creativecommons.org/ns#"
   xmlns:rdf="http://www.w3.org/1999/02/22-rdf-syntax-ns#"
   xmlns:svg="http://www.w3.org/2000/svg"
   xmlns="http://www.w3.org/2000/svg"
   xmlns:sodipodi="http://sodipodi.sourceforge.net/DTD/sodipodi-0.dtd"
   xmlns:inkscape="http://www.inkscape.org/namespaces/inkscape"
   viewBox="0 0 1708.3001 1903.6976"
   version="1.1"
   id="svg58"
   sodipodi:docname="Google_Play_2016_logo.svg"
   width="1708.3"
   height="1903.6975"
   inkscape:version="0.92.3 (2405546, 2018-03-11)">
  <metadata
     id="metadata64">
    <rdf:RDF>
      <cc:Work
         rdf:about="">
        <dc:format>image/svg+xml</dc:format>
        <dc:type
           rdf:resource="http://purl.org/dc/dcmitype/StillImage" />
        <dc:title></dc:title>
      </cc:Work>
    </rdf:RDF>
  </metadata>
  <defs
     id="defs62" />
  <sodipodi:namedview
     pagecolor="#ffffff"
     bordercolor="#666666"
     borderopacity="1"
     objecttolerance="10"
     gridtolerance="10"
     guidetolerance="10"
     inkscape:pageopacity="0"
     inkscape:pageshadow="2"
     inkscape:window-width="1853"
     inkscape:window-height="1025"
     id="namedview60"
     showgrid="false"
     fit-margin-top="0"
     fit-margin-left="0"
     fit-margin-right="0"
     fit-margin-bottom="0"
     inkscape:zoom="0.11887361"
     inkscape:cx="4013.5387"
     inkscape:cy="597.87221"
     inkscape:window-x="67"
     inkscape:window-y="27"
     inkscape:window-maximized="1"
     inkscape:current-layer="svg58" />
  <style
     id="style2">.st7{fill-rule:evenodd;clip-rule:evenodd;fill:#808285}</style>
  <linearGradient
     id="d"
     x1="2891"
     x2="2784.3999"
     y1="1504.5"
     y2="1449.5"
     gradientTransform="matrix(11.64,0,0,-22.55,-32777,34042.992)"
     gradientUnits="userSpaceOnUse">
    <stop
       offset="0"
       stop-color="#00A0FF"
       id="stop4" />
    <stop
       offset=".007"
       stop-color="#00A1FF"
       id="stop6" />
    <stop
       offset=".26"
       stop-color="#00BEFF"
       id="stop8" />
    <stop
       offset=".512"
       stop-color="#00D2FF"
       id="stop10" />
    <stop
       offset=".76"
       stop-color="#00DFFF"
       id="stop12" />
    <stop
       offset="1"
       stop-color="#00E3FF"
       id="stop14" />
  </linearGradient>
  <path
     d="m 33.7,29.191716 c -21.4,23 -33.7,58.4 -33.7,104.400004 V 1769.7917 c 0,46 12.3,81.4 34.5,103.6 l 5.8,4.9 916.8,-916.79998 v -20.6 L 39.5,24.291716 Z"
     id="path17"
     inkscape:connector-curvature="0"
     style="clip-rule:evenodd;fill:url(#d);fill-rule:evenodd" />
  <linearGradient
     id="c"
     x1="2935.2"
     x2="2739.3999"
     y1="1422.8"
     y2="1422.8"
     gradientTransform="matrix(9.145,0,0,-7.7,-25077,11906.992)"
     gradientUnits="userSpaceOnUse">
    <stop
       offset="0"
       stop-color="#FFE000"
       id="stop19" />
    <stop
       offset=".409"
       stop-color="#FFBD00"
       id="stop21" />
    <stop
       offset=".775"
       stop-color="orange"
       id="stop23" />
    <stop
       offset="1"
       stop-color="#FF9C00"
       id="stop25" />
  </linearGradient>
  <path
     d="M 1262.1,1268.2917 956.3,962.39172 v -21.4 l 305.9,-305.9 6.6,4.1 361.8,205.6 c 103.6,58.4 103.6,154.6 0,213.79998 l -361.8,205.6 c -0.1,0 -6.7,4.1 -6.7,4.1 z"
     id="path28"
     inkscape:connector-curvature="0"
     style="clip-rule:evenodd;fill:url(#c);fill-rule:evenodd" />
  <linearGradient
     id="b"
     x1="2948.8"
     x2="2836.6001"
     y1="1431.3"
     y2="1285.9"
     gradientTransform="matrix(15.02,0,0,-11.578,-43192,17692.992)"
     gradientUnits="userSpaceOnUse">
    <stop
       offset="0"
       stop-color="#FF3A44"
       id="stop30" />
    <stop
       offset="1"
       stop-color="#C31162"
       id="stop32" />
  </linearGradient>
  <path
     d="M 1268.7,1264.1917 956.3,951.69172 33.7,1874.2917 c 33.7,36.2 90.4,40.3 153.8,4.9 l 1081.2,-615"
     id="path35"
     inkscape:connector-curvature="0"
     style="clip-rule:evenodd;fill:url(#b);fill-rule:evenodd" />
  <linearGradient
     id="a"
     x1="2862.3999"
     x2="2912.5"
     y1="1571.7"
     y2="1506.8"
     gradientTransform="matrix(15.02,0,0,-11.572,-43192,17671.992)"
     gradientUnits="userSpaceOnUse">
    <stop
       offset="0"
       stop-color="#32A071"
       id="stop37" />
    <stop
       offset=".069"
       stop-color="#2DA771"
       id="stop39" />
    <stop
       offset=".476"
       stop-color="#15CF74"
       id="stop41" />
    <stop
       offset=".801"
       stop-color="#06E775"
       id="stop43" />
    <stop
       offset="1"
       stop-color="#00F076"
       id="stop45" />
  </linearGradient>
  <path
     d="M 1268.7,639.29172 187.5,25.091716 c -63.3,-36.2 -120.1,-31.2999998 -153.8,4.9 L 956.2,951.69172 Z"
     id="path48"
     inkscape:connector-curvature="0"
     style="clip-rule:evenodd;fill:url(#a);fill-rule:evenodd" />
  <path
     d="m 1262.1,1257.5917 -1073.8,610.1 c -60,34.5 -113.5,32.1 -148,0.8 l -5.8,5.8 5.8,4.9 c 34.5,31.2 88,33.7 148,-0.8 l 1081.2,-614.2 z"
     id="path50"
     inkscape:connector-curvature="0"
     style="clip-rule:evenodd;opacity:0.2;fill-rule:evenodd" />
  <path
     d="m 1630.5,1047.8917 -369.2,209.7 6.6,6.6 361.8,-205.6 c 51.8,-29.6 77.3,-68.19998 77.3,-106.89998 -3.3,35.4 -29.6,69.09998 -76.5,96.19998 z"
     id="path52"
     inkscape:connector-curvature="0"
     style="clip-rule:evenodd;opacity:0.12000002;fill-rule:evenodd" />
  <path
     d="m 187.5,35.791716 1443,819.800004 c 46.9,26.3 73.2,60.8 77.3,96.2 0,-38.6 -25.5,-77.3 -77.3,-106.9 L 187.5,25.091716 C 83.9,-34.108284 0,15.191716 0,133.59172 v 10.7 C 0,25.891716 83.9,-22.608284 187.5,35.791716 Z"
     id="path54"
     inkscape:connector-curvature="0"
     style="clip-rule:evenodd;opacity:0.25;fill:#ffffff;fill-rule:evenodd" />
</svg>
